<svg width="42" height="43" viewBox="0 0 42 43" fill="none" xmlns="http://www.w3.org/2000/svg">
<path d="M21 11L19.1231 12.8283L26.4469 20.1875H10.5V22.8125H26.4469L19.1231 30.1271L21 32L31.5 21.5L21 11Z" fill="#302F2A"/>
<path d="M21 39.875C17.3658 39.875 13.8132 38.7973 10.7914 36.7783C7.76965 34.7592 5.41448 31.8894 4.02372 28.5318C2.63296 25.1742 2.26908 21.4796 2.97808 17.9152C3.68708 14.3508 5.43713 11.0767 8.00692 8.50692C10.5767 5.93713 13.8508 4.18708 17.4152 3.47808C20.9796 2.76908 24.6742 3.13296 28.0318 4.52372C31.3894 5.91448 34.2592 8.26965 36.2783 11.2914C38.2973 14.3132 39.375 17.8658 39.375 21.5C39.3694 26.3717 37.4317 31.0422 33.987 34.487C30.5422 37.9317 25.8717 39.8694 21 39.875ZM21 5.75001C17.885 5.75001 14.8399 6.67373 12.2498 8.40436C9.6597 10.135 7.64099 12.5948 6.44891 15.4727C5.25683 18.3507 4.94492 21.5175 5.55264 24.5727C6.16036 27.6279 7.6604 30.4343 9.86308 32.6369C12.0658 34.8396 14.8721 36.3397 17.9273 36.9474C20.9825 37.5551 24.1493 37.2432 27.0273 36.0511C29.9052 34.859 32.365 32.8403 34.0957 30.2502C35.8263 27.6602 36.75 24.6151 36.75 21.5C36.7451 17.3243 35.0842 13.3211 32.1316 10.3684C29.1789 7.4158 25.1757 5.75487 21 5.75001Z" fill="#302F2A"/>
</svg>
